<svg xmlns="http://www.w3.org/2000/svg"  viewBox="0 0 100 100" width="50px" height="50px"><circle cx="13" cy="29" r="2" fill="#ee3e54"/><circle cx="77" cy="13" r="1" fill="#f1bc19"/><circle cx="50" cy="50" r="37" fill="#fce0a2"/><circle cx="83" cy="15" r="4" fill="#f1bc19"/><circle cx="87" cy="24" r="2" fill="#ee3e54"/><circle cx="81" cy="76" r="2" fill="#fbcd59"/><circle cx="15" cy="63" r="4" fill="#fbcd59"/><circle cx="25" cy="87" r="2" fill="#ee3e54"/><circle cx="18.5" cy="53.5" r="2.5" fill="#fff"/><circle cx="21" cy="67" r="1" fill="#f1bc19"/><circle cx="80" cy="34" r="1" fill="#fff"/><g><path fill="#472b29" d="M50,25c-13.785,0-25,11.215-25,25c0,5.051,1.499,9.918,4.336,14.075 c0.28,0.41,0.743,0.655,1.24,0.655c0.302,0,0.594-0.09,0.844-0.261c0.683-0.466,0.86-1.401,0.394-2.084 C29.319,58.728,28,54.446,28,50c0-12.131,9.869-22,22-22c6.302,0,12.313,2.711,16.491,7.437c0.284,0.322,0.694,0.507,1.124,0.507 c0.366,0,0.719-0.134,0.993-0.377c0.3-0.265,0.479-0.631,0.503-1.031c0.025-0.4-0.108-0.785-0.374-1.085 C63.991,28.08,57.161,25,50,25L50,25z"/><path fill="#472b29" d="M37.127,68.163c-0.507,0-0.977,0.253-1.255,0.676c-0.22,0.335-0.296,0.736-0.215,1.128 c0.081,0.392,0.311,0.729,0.646,0.949c3.907,2.563,8.446,3.973,13.129,4.077c0,0,0.001,0,0.001,0c0.843,0,1.514-0.658,1.532-1.466 c0.009-0.4-0.138-0.78-0.415-1.07c-0.277-0.29-0.65-0.454-1.051-0.463c-4.121-0.092-8.115-1.332-11.55-3.586 C37.703,68.248,37.419,68.163,37.127,68.163L37.127,68.163z"/><path fill="#472b29" d="M72.442,41.5L72.442,41.5c-0.152,0-0.303,0.023-0.449,0.069c-0.381,0.118-0.694,0.379-0.881,0.734 c-0.187,0.355-0.224,0.761-0.105,1.143C71.666,45.558,72,47.763,72,50c0,9.433-5.996,17.806-14.922,20.837 c-0.379,0.128-0.686,0.397-0.863,0.756c-0.177,0.359-0.204,0.766-0.075,1.146c0.206,0.609,0.777,1.018,1.42,1.018 c0.163,0,0.325-0.027,0.482-0.08C68.185,70.234,75,60.718,75,50c0-2.537-0.379-5.042-1.127-7.445 C73.675,41.923,73.1,41.5,72.442,41.5L72.442,41.5z"/><path fill="#472b29" d="M49.535,32.006c-0.031,0-0.061,0.001-0.092,0.003C39.668,32.299,32,40.202,32,50 c0,1.644,0.222,3.275,0.66,4.847c0.181,0.646,0.775,1.098,1.445,1.098c0.135,0,0.27-0.019,0.403-0.055 c0.387-0.108,0.708-0.359,0.905-0.708c0.197-0.349,0.246-0.754,0.138-1.14C35.185,52.733,35,51.373,35,50 c0-8.165,6.389-14.751,14.546-14.993c0.4-0.012,0.772-0.179,1.047-0.47c0.275-0.292,0.42-0.673,0.408-1.074 C50.977,32.632,50.346,32.006,49.535,32.006L49.535,32.006z"/><path fill="#472b29" d="M57.588,33.844L57.588,33.844c-0.563,0-1.073,0.31-1.332,0.81 c-0.381,0.734-0.093,1.641,0.641,2.022C61.895,39.269,65,44.374,65,50c0,8.271-6.729,15-15,15c-4.87,0-9.455-2.379-12.266-6.364 C37.454,58.238,36.995,58,36.507,58c-0.311,0-0.61,0.095-0.864,0.274c-0.327,0.231-0.545,0.575-0.613,0.97 c-0.068,0.395,0.021,0.793,0.252,1.12C38.655,65.146,44.157,68,50,68c9.925,0,18-8.075,18-18c0-6.75-3.725-12.876-9.722-15.987 C58.065,33.902,57.826,33.844,57.588,33.844L57.588,33.844z"/><path fill="#472b29" d="M50,39c-3.022,0-5.944,1.263-8.015,3.466c-0.567,0.602-0.537,1.554,0.065,2.12 c0.279,0.262,0.644,0.407,1.027,0.407c0.413,0,0.811-0.172,1.093-0.472C45.699,42.895,47.77,42,50,42c4.411,0,8,3.589,8,8 c0,1.296-0.317,2.583-0.916,3.721c-0.385,0.732-0.103,1.641,0.628,2.026c0.215,0.113,0.456,0.173,0.698,0.173 c0.559,0,1.068-0.307,1.328-0.801C60.564,53.551,61,51.782,61,50C61,43.935,56.065,39,50,39L50,39z"/><path fill="#472b29" d="M50.5,45h-4c-0.83,0-1.5,0.67-1.5,1.5v3c0,3.03,2.47,5.5,5.5,5.5H52v2.75 C51.35,57.92,50.68,58,50,58c-4.41,0-8-3.59-8-8c0-0.41,0.03-0.83,0.1-1.24c0.12-0.81-0.44-1.58-1.26-1.71 c-0.08-0.01-0.15-0.02-0.22-0.02c-0.75,0-1.38,0.54-1.49,1.27C39.04,48.86,39,49.43,39,50c0,6.07,4.93,11,11,11 c1.4,0,2.76-0.26,4.05-0.77C54.63,60,55,59.45,55,58.83V49.5C55,47.02,52.98,45,50.5,45z M52,52h-1.5c-1.38,0-2.5-1.12-2.5-2.5V48 h2.5c0.83,0,1.5,0.67,1.5,1.5V52z M50.5,47.5h-3v2c0,1.65,1.35,3,3,3h2v-3C52.5,48.4,51.6,47.5,50.5,47.5z M52,52h-1.5 c-1.38,0-2.5-1.12-2.5-2.5V48h2.5c0.83,0,1.5,0.67,1.5,1.5V52z"/></g><g><path fill="#4792dd" d="M31.4,62.67c0.31,0.45,0.19,1.07-0.26,1.39c-0.17,0.11-0.37,0.17-0.56,0.17 c-0.32,0-0.64-0.15-0.83-0.44C26.97,59.72,25.5,54.95,25.5,50c0-0.3,0.01-0.6,0.02-0.9l2.01,2.01 C27.73,55.26,29.06,59.24,31.4,62.67z"/><path fill="#4792dd" d="M35.69,60.08c-0.2-0.28-0.23-0.62-0.11-0.92l6.36,6.37C39.49,64.26,37.33,62.4,35.69,60.08z"/><path fill="#4792dd" d="M50.36,73.94c-0.17,0.33-0.5,0.55-0.89,0.55h-0.03c-4.59-0.1-9.04-1.48-12.86-3.99 c-0.46-0.3-0.59-0.92-0.29-1.39c0.3-0.46,0.92-0.59,1.38-0.28c3.35,2.19,7.21,3.45,11.22,3.64L50.36,73.94z"/><path fill="#657fbe" d="M50.46,73.52c0,0.14-0.03,0.26-0.08,0.38l-1.43-1.43c0.18,0.01,0.36,0.02,0.54,0.02 C50.04,72.51,50.48,72.96,50.46,73.52z"/><path fill="#657fbe" d="M29.34,41.09c-1.18,2.73-1.84,5.75-1.84,8.91c0,0.35,0.01,0.7,0.03,1.05l-2.01-2.01 c0.13-3.37,0.94-6.57,2.31-9.46L29.34,41.09z"/><path fill="#657fbe" d="M35.07,54.18c0.15,0.53-0.16,1.08-0.7,1.23c-0.09,0.02-0.18,0.03-0.27,0.03 c-0.43,0-0.83-0.28-0.96-0.73C32.72,53.19,32.5,51.6,32.5,50c0-1.75,0.25-3.44,0.72-5.03l1.65,1.65 c-0.24,1.09-0.37,2.22-0.37,3.38C34.5,51.42,34.69,52.82,35.07,54.18z"/><path fill="#657fbe" d="M39.59,51.34l9.08,9.08C43.94,59.82,40.19,56.06,39.59,51.34z"/><path fill="#657fbe" d="M55.01,66.76c-1.59,0.49-3.27,0.74-5.01,0.74c-2.79,0-5.5-0.68-7.93-1.91l-6.48-6.48 c0.06-0.16,0.18-0.31,0.34-0.43c0.45-0.32,1.08-0.21,1.4,0.24c2.9,4.12,7.64,6.58,12.67,6.58c1.16,0,2.29-0.13,3.37-0.38 L55.01,66.76z"/><path fill="#657fbe" d="M60.42,72.17c-0.82,0.39-1.67,0.74-2.54,1.03c-0.1,0.04-0.21,0.06-0.32,0.06 c-0.42,0-0.81-0.26-0.95-0.68c-0.17-0.52,0.11-1.09,0.63-1.27c0.57-0.19,1.13-0.41,1.67-0.64h0.01L60.42,72.17z"/><path fill="#666aad" d="M34.12,34.09c-2.01,1.99-3.64,4.36-4.78,7l-1.51-1.51c1.22-2.58,2.87-4.92,4.87-6.91L34.12,34.09z"/><path fill="#666aad" d="M39.03,39c-2.05,2.05-3.52,4.67-4.16,7.62l-1.65-1.65c0.84-2.83,2.37-5.36,4.4-7.38L39.03,39z"/><path fill="#666aad" d="M41.5,50c0,1.7,0.5,3.29,1.37,4.62l-3.28-3.28C39.53,50.9,39.5,50.45,39.5,50 c0-0.54,0.04-1.09,0.12-1.62c0.09-0.55,0.6-0.92,1.15-0.84c0.54,0.09,0.92,0.6,0.83,1.15C41.53,49.12,41.5,49.56,41.5,50z"/><path fill="#666aad" d="M42.6,42.57l1.41,1.41c-0.07,0.06-0.13,0.13-0.2,0.2c-0.38,0.4-1.02,0.42-1.42,0.04 c-0.4-0.38-0.42-1.01-0.04-1.41C42.43,42.72,42.51,42.64,42.6,42.57z"/><path fill="#666aad" d="M53.87,59.76c-1.23,0.49-2.53,0.74-3.87,0.74c-0.45,0-0.9-0.03-1.33-0.08l-3.29-3.29 C46.71,58,48.3,58.5,50,58.5c0.86,0,1.69-0.13,2.5-0.37V54.5h-2c-2.76,0-5-2.24-5-5v-3c0-0.28,0.12-0.54,0.31-0.72l1.72,1.72H47.5 v2c0,1.65,1.35,3,3,3h2v-0.03l2,2v4.36C54.5,59.24,54.25,59.61,53.87,59.76z"/><path fill="#666aad" d="M62.38,62.35c-2.02,2.03-4.55,3.57-7.37,4.41l-1.64-1.64c2.93-0.64,5.56-2.13,7.6-4.18L62.38,62.35 z"/><path fill="#666aad" d="M67.34,67.31c-1.98,1.99-4.31,3.65-6.92,4.86l-1.5-1.5c2.66-1.16,5.03-2.79,7.01-4.77L67.34,67.31z"/><path fill="#a73c8f" d="M41.13,29.33c-2.63,1.13-5.01,2.75-7.01,4.76l-1.42-1.42c2-2,4.34-3.65,6.92-4.85L41.13,29.33z"/><path fill="#a73c8f" d="M46.66,34.86c-2.96,0.64-5.58,2.1-7.63,4.14l-1.41-1.41c2.02-2.02,4.55-3.55,7.39-4.38L46.66,34.86 z"/><path fill="#a73c8f" d="M54.75,42.95c-1.36-0.92-2.99-1.45-4.75-1.45c-2.27,0-4.39,0.87-5.99,2.48l-1.41-1.41 c1.96-1.96,4.64-3.07,7.4-3.07c0.47,0,0.94,0.03,1.39,0.09L54.75,42.95z"/><path fill="#a73c8f" d="M54.5,49.5v4.97l-2-2V49.5c0-1.1-0.9-2-2-2h-2.97l-1.72-1.72c0.18-0.17,0.42-0.28,0.69-0.28h4 C52.71,45.5,54.5,47.29,54.5,49.5z"/><path fill="#a73c8f" d="M60.41,48.61c0.06,0.45,0.09,0.92,0.09,1.39c0,1.7-0.42,3.39-1.2,4.89 c-0.18,0.34-0.53,0.53-0.89,0.53c-0.16,0-0.32-0.04-0.46-0.12c-0.49-0.25-0.68-0.86-0.42-1.35c0.63-1.21,0.97-2.57,0.97-3.95 c0-1.76-0.53-3.39-1.45-4.75L60.41,48.61z"/><path fill="#a73c8f" d="M66.78,54.98c-0.84,2.82-2.37,5.34-4.4,7.37l-1.41-1.41c2.05-2.05,3.53-4.67,4.16-7.61L66.78,54.98 z"/><path fill="#a73c8f" d="M72.19,60.39c-1.2,2.57-2.84,4.92-4.85,6.92l-1.41-1.41c2.01-2.02,3.62-4.4,4.75-7.02L72.19,60.39z"/><path fill="#c82679" d="M50.5,33.48c0.02,0.55-0.42,1.01-0.97,1.03c-0.98,0.03-1.95,0.15-2.87,0.35l-1.65-1.65 c1.42-0.41,2.91-0.65,4.46-0.7C50.06,32.47,50.48,32.93,50.5,33.48z"/><path fill="#c82679" d="M49.1,25.52l2.01,2.01c-0.37-0.02-0.74-0.03-1.11-0.03c-3.15,0-6.15,0.65-8.87,1.83l-1.51-1.51 C42.52,26.45,45.72,25.64,49.1,25.52z"/><path fill="#c82679" d="M60.41,48.61l-9.02-9.02C56.07,40.21,59.79,43.93,60.41,48.61z"/><path fill="#c82679" d="M67.5,50c0,1.73-0.25,3.4-0.72,4.98l-1.65-1.65c0.25-1.07,0.37-2.19,0.37-3.33 c0-5.81-3.21-11.09-8.37-13.77c-0.49-0.25-0.68-0.86-0.43-1.35c0.25-0.48,0.84-0.67,1.33-0.43l7.54,7.54 C66.82,44.42,67.5,47.15,67.5,50z"/><path fill="#c82679" d="M74.48,50.9c-0.12,3.35-0.92,6.57-2.29,9.49l-1.51-1.51c1.18-2.75,1.82-5.76,1.82-8.88 c0-0.37-0.01-0.74-0.03-1.11L74.48,50.9z"/><path fill="#e23855" d="M65.57,41.99l-7.54-7.54c0.01,0,0.01,0.01,0.02,0.01C61.35,36.17,63.94,38.82,65.57,41.99z"/><path fill="#e23855" d="M68.36,33.78c0.37,0.41,0.33,1.05-0.08,1.41c-0.42,0.37-1.05,0.33-1.41-0.08 c-4.03-4.56-9.72-7.28-15.76-7.58l-2.01-2.01c0.3-0.01,0.6-0.02,0.9-0.02C57.02,25.5,63.71,28.52,68.36,33.78z"/><path fill="#e23855" d="M74.5,50c0,0.3-0.01,0.6-0.02,0.9l-2.01-2.01c-0.09-1.91-0.42-3.78-0.98-5.59 c-0.17-0.53,0.13-1.09,0.65-1.25c0.53-0.17,1.09,0.13,1.26,0.65C74.13,45.06,74.5,47.51,74.5,50z"/></g></svg>