<svg xmlns="http://www.w3.org/2000/svg"  viewBox="0 0 100 100" width="50px" height="50px"><circle cx="50" cy="50" r="37" fill="#e6edb7"/><circle cx="83" cy="15" r="4" fill="#f1bc19"/><circle cx="87" cy="24" r="2" fill="#9f8066"/><circle cx="81" cy="76" r="2" fill="#fbcd59"/><circle cx="15" cy="63" r="4" fill="#fbcd59"/><circle cx="25" cy="87" r="2" fill="#9f8066"/><circle cx="19.5" cy="43.5" r="2.5" fill="#fff"/><circle cx="79.5" cy="33.5" r="1.5" fill="#fff"/><circle cx="77" cy="13" r="1" fill="#f1bc19"/><path fill="#ee3e54" d="M65.419,73H33.981c-4.021,0-7.281-3.26-7.281-7.281V34.281C26.7,30.26,29.96,27,33.981,27h31.438	c4.021,0,7.281,3.26,7.281,7.281v31.438C72.7,69.74,69.44,73,65.419,73z"/><path fill="#472b29" d="M65.419,73.7H33.981C29.58,73.7,26,70.12,26,65.719V34.281c0-4.401,3.581-7.981,7.981-7.981h31.438	c4.401,0,7.981,3.58,7.981,7.981v31.438C73.4,70.12,69.82,73.7,65.419,73.7z M33.981,27.7c-3.629,0-6.581,2.952-6.581,6.581v31.438	c0,3.629,2.952,6.581,6.581,6.581h31.438c3.629,0,6.581-2.952,6.581-6.581V34.281c0-3.629-2.952-6.581-6.581-6.581	C65.419,27.7,33.981,27.7,33.981,27.7z"/><path fill="#472b29" d="M30.2,40.167c-0.276,0-0.5-0.224-0.5-0.5v-4.333c0-2.941,2.393-5.334,5.333-5.334h14 c0.276,0,0.5,0.224,0.5,0.5s-0.224,0.5-0.5,0.5h-14c-2.389,0-4.333,1.944-4.333,4.333v4.333C30.7,39.943,30.476,40.167,30.2,40.167 z"/><path fill="#472b29" d="M41.283,70h-6.25c-2.94,0-5.333-2.393-5.333-5.333V44.333c0-0.276,0.224-0.5,0.5-0.5 s0.5,0.224,0.5,0.5v20.333c0,2.39,1.944,4.334,4.333,4.334h6.25c0.276,0,0.5,0.224,0.5,0.5S41.56,70,41.283,70z"/><path fill="#472b29" d="M64.367,70h-19.75c-0.276,0-0.5-0.224-0.5-0.5s0.224-0.5,0.5-0.5h19.75 c2.389,0,4.333-1.944,4.333-4.333v-5.083c0-0.276,0.224-0.5,0.5-0.5s0.5,0.224,0.5,0.5v5.083C69.7,67.607,67.307,70,64.367,70z"/><path fill="#472b29" d="M69.2,56.167c-0.276,0-0.5-0.224-0.5-0.5V35.333c0-2.389-1.944-4.333-4.333-4.333h-2.75 c-0.276,0-0.5-0.224-0.5-0.5s0.224-0.5,0.5-0.5h2.75c2.94,0,5.333,2.393,5.333,5.333v20.333C69.7,55.943,69.476,56.167,69.2,56.167 z"/><path fill="#472b29" d="M58.2,31h-6.25c-0.276,0-0.5-0.224-0.5-0.5s0.224-0.5,0.5-0.5h6.25c0.276,0,0.5,0.224,0.5,0.5 S58.476,31,58.2,31z"/><path fill="#fdfcef" d="M64.078,54.131c-0.339-0.706-0.989-1.223-1.589-1.407c-1.207-0.324-2.165-0.439-3.174-0.418 c-0.495,0.012-0.983,0.024-1.467,0.067c-0.523,0.049-0.975,0.122-1.449,0.189c-0.424,0.063-0.844,0.137-1.266,0.206 c-0.341-0.328-0.673-0.664-0.99-1.004c-0.619-0.659-1.108-1.282-1.634-2.038c-0.5-0.682-0.968-1.388-1.409-2.111 c0.438-1.585,0.864-3.163,1.133-4.824c0.078-0.484,0.168-0.958,0.206-1.495c0.044-0.554-0.008-1.137-0.182-1.692 c-0.172-0.563-0.487-1.155-1.026-1.608c-0.539-0.449-1.29-0.687-1.978-0.57c-0.789,0.063-1.362,0.556-1.695,1.041 c-0.35,0.498-0.521,1.038-0.625,1.568c-0.195,1.061-0.059,2.126,0.187,3.073c0.359,1.397,0.892,2.696,1.505,3.953 c-0.059,0.161-0.113,0.324-0.175,0.484c-0.677,1.701-1.359,3.225-2.198,4.866c-0.462,0.925-0.934,1.845-1.419,2.756 c-0.746,0.288-1.483,0.595-2.21,0.929c-0.872,0.409-1.727,0.837-2.573,1.375c-0.211,0.132-0.425,0.282-0.639,0.444l-0.331,0.283 l-0.253,0.241c-0.354,0.34-0.712,0.709-1.032,1.149c-0.31,0.44-0.634,0.957-0.696,1.7c-0.024,0.368,0.059,0.789,0.253,1.13 c0.195,0.342,0.451,0.588,0.719,0.784c0.559,0.438,1.444,0.56,2.072,0.376c0.643-0.165,1.126-0.471,1.561-0.784 c0.865-0.627,1.542-1.346,2.214-2.059c0.665-0.718,1.27-1.469,1.829-2.246c0.55-0.779,1.075-1.569,1.573-2.372 c0.389-0.121,0.778-0.237,1.17-0.341c1.746-0.448,3.609-0.868,5.42-1.258c0.095-0.02,0.19-0.038,0.284-0.058 c0.981,0.805,2.018,1.54,3.187,2.164c0.221,0.119,0.465,0.224,0.706,0.328c0.259,0.1,0.525,0.176,0.758,0.27 c0.482,0.19,0.983,0.339,1.517,0.442c0.535,0.098,1.104,0.165,1.758,0.054c0.325-0.056,0.682-0.161,1.041-0.375 c0.354-0.212,0.693-0.57,0.897-0.977c0.2-0.401,0.279-0.847,0.275-1.18C64.331,54.845,64.252,54.476,64.078,54.131z M48.749,42.673 c-0.261-0.822-0.387-1.628-0.289-2.394c0.051-0.374,0.156-0.74,0.33-1.01c0.169-0.277,0.392-0.441,0.557-0.449 c0.528,0.119,0.676,0.618,0.756,1.277c0.012,0.165,0.035,0.34,0.033,0.523c-0.009,0.189,0.009,0.318-0.016,0.531 c-0.015,0.385-0.081,0.822-0.157,1.246c-0.147,0.691-0.323,1.389-0.515,2.086C49.184,43.885,48.94,43.282,48.749,42.673z M40.605,61.384c-0.312,0.239-0.645,0.418-0.909,0.502c-0.416,0.132-0.925-0.008-0.887-0.501c0.007-0.186,0.152-0.512,0.381-0.817 c0.226-0.311,0.515-0.615,0.832-0.918l0.253-0.239l0.201-0.169c0.158-0.118,0.326-0.236,0.511-0.351 c0.73-0.462,1.551-0.873,2.372-1.254c0.035-0.016,0.071-0.03,0.107-0.046C42.628,58.994,41.77,60.445,40.605,61.384z M48.544,54 c0.063-0.115,1.075-1.998,1.449-2.932c0.128-0.308,0.231-0.619,0.339-0.93c0.155,0.247,0.306,0.495,0.468,0.737 c0.277,0.393,0.542,0.774,0.872,1.184c0.329,0.38,0.666,0.741,1.016,1.081c0.012,0.012,0.025,0.023,0.038,0.034 C51.333,53.424,49.953,53.675,48.544,54z M61.906,54.947c0.003,0.173-0.056,0.514-0.368,0.665 c-0.252,0.122-0.604,0.167-1.001,0.181c-0.4,0.015-0.822-0.023-1.239-0.092c-0.419-0.085-0.726-0.279-1.111-0.5 c-0.575-0.357-1.132-0.776-1.676-1.219c0.044-0.008,0.087-0.019,0.131-0.027c0.451-0.085,0.922-0.178,1.332-0.22 c0.45-0.042,0.899-0.085,1.342-0.073c0.442,0.006,0.878,0.039,1.288,0.11c0.407,0.061,0.796,0.238,1.01,0.494 C61.836,54.519,61.902,54.742,61.906,54.947z"/><path fill="#472b29" d="M39.518,64.039c-0.606,0-1.235-0.193-1.681-0.543c-0.347-0.254-0.616-0.549-0.812-0.893 c-0.222-0.39-0.332-0.878-0.301-1.341c0.07-0.845,0.431-1.419,0.763-1.892c0.359-0.493,0.747-0.885,1.079-1.203l0.601-0.538 c0.241-0.183,0.463-0.34,0.684-0.478c0.897-0.57,1.786-1.008,2.613-1.396c0.662-0.304,1.35-0.595,2.104-0.888 c0.461-0.868,0.909-1.744,1.349-2.625c0.811-1.586,1.485-3.077,2.185-4.837l0.117-0.322c-0.679-1.412-1.145-2.649-1.462-3.882 c-0.31-1.195-0.374-2.253-0.192-3.235c0.137-0.699,0.355-1.243,0.687-1.716c0.479-0.698,1.198-1.137,1.972-1.199 c0.738-0.124,1.608,0.123,2.249,0.656c0.528,0.444,0.923,1.062,1.145,1.786c0.178,0.569,0.247,1.203,0.198,1.831 c-0.033,0.456-0.102,0.869-0.17,1.281l-0.041,0.245c-0.256,1.583-0.648,3.073-1.098,4.706c0.428,0.693,0.868,1.347,1.307,1.946 c0.556,0.798,1.034,1.396,1.605,2.003c0.272,0.291,0.554,0.577,0.843,0.859l0.17-0.028c0.304-0.051,0.608-0.102,0.914-0.147 l0.28-0.04c0.383-0.056,0.763-0.111,1.189-0.151c0.482-0.042,0.965-0.055,1.455-0.067c1.115-0.035,2.128,0.11,3.319,0.43 c0.77,0.236,1.465,0.85,1.829,1.604c0.191,0.381,0.292,0.802,0.29,1.22c0.006,0.438-0.108,0.932-0.313,1.346 c-0.232,0.461-0.61,0.872-1.039,1.131c-0.354,0.211-0.737,0.349-1.171,0.423c-0.731,0.126-1.366,0.042-1.89-0.054 c-0.543-0.104-1.062-0.256-1.586-0.462c-0.119-0.048-0.243-0.09-0.37-0.133c-0.127-0.043-0.258-0.087-0.387-0.137 c-0.269-0.115-0.52-0.224-0.748-0.347c-1.038-0.554-2.057-1.239-3.108-2.091l-0.105,0.021c-2.196,0.474-3.914,0.873-5.406,1.255 c-0.338,0.091-0.679,0.19-1.019,0.295c-0.477,0.763-0.985,1.526-1.512,2.271c-0.59,0.82-1.215,1.588-1.859,2.285 c-0.681,0.722-1.377,1.461-2.269,2.107c-0.463,0.332-0.986,0.664-1.688,0.844C40.008,64.007,39.765,64.039,39.518,64.039z M49.608,37.772c-0.1,0-0.198,0.008-0.293,0.024c-0.81,0.066-1.282,0.64-1.448,0.883c-0.272,0.387-0.451,0.84-0.566,1.429 c-0.16,0.867-0.101,1.819,0.182,2.906c0.315,1.226,0.785,2.459,1.479,3.884c0.045,0.092,0.05,0.197,0.015,0.293l-0.067,0.188 c-0.036,0.101-0.071,0.202-0.11,0.301c-0.711,1.786-1.393,3.297-2.214,4.902c-0.462,0.925-0.935,1.848-1.422,2.762 c-0.042,0.079-0.112,0.141-0.196,0.173c-0.79,0.306-1.506,0.606-2.188,0.92c-0.802,0.376-1.665,0.802-2.529,1.351 c-0.204,0.128-0.409,0.271-0.614,0.427l-0.553,0.496c-0.308,0.295-0.666,0.657-0.987,1.098c-0.285,0.405-0.57,0.859-0.625,1.511 c-0.02,0.309,0.057,0.652,0.205,0.913c0.146,0.255,0.341,0.467,0.614,0.667c0.444,0.349,1.191,0.479,1.744,0.319 c0.562-0.145,0.984-0.396,1.448-0.729c0.833-0.604,1.505-1.316,2.155-2.006c0.626-0.677,1.231-1.421,1.802-2.213 c0.543-0.771,1.069-1.562,1.56-2.352c0.047-0.076,0.121-0.133,0.207-0.16c0.394-0.122,0.788-0.24,1.184-0.346 c1.505-0.386,3.232-0.786,5.438-1.262l0.284-0.059c0.113-0.023,0.229,0.004,0.318,0.076c1.062,0.873,2.084,1.567,3.125,2.123 c0.21,0.113,0.441,0.212,0.668,0.311c0.114,0.044,0.234,0.084,0.351,0.124c0.142,0.048,0.28,0.095,0.409,0.146 c0.477,0.188,0.952,0.326,1.447,0.421c0.481,0.088,1.012,0.158,1.625,0.052c0.342-0.059,0.641-0.165,0.913-0.327 c0.305-0.184,0.587-0.491,0.753-0.822c0.151-0.305,0.239-0.682,0.234-1.007c0.001-0.308-0.072-0.612-0.211-0.889 c-0.001-0.002-0.002-0.004-0.003-0.007c-0.271-0.564-0.806-1.04-1.362-1.211c-1.121-0.302-2.044-0.428-3.056-0.401 c-0.511,0.013-0.979,0.024-1.442,0.065c-0.41,0.039-0.778,0.093-1.149,0.146l-0.28,0.04c-0.299,0.045-0.599,0.095-0.898,0.146 l-0.359,0.06c-0.119,0.018-0.236-0.018-0.321-0.101c-0.346-0.333-0.682-0.673-1.004-1.018c-0.597-0.635-1.096-1.258-1.668-2.08 c-0.475-0.647-0.956-1.366-1.421-2.129c-0.054-0.088-0.069-0.195-0.042-0.295c0.462-1.673,0.865-3.188,1.124-4.784l0.041-0.248 c0.065-0.39,0.13-0.78,0.162-1.215c0.042-0.535-0.016-1.071-0.166-1.553c-0.125-0.411-0.385-0.991-0.909-1.433 C50.595,37.956,50.087,37.772,49.608,37.772z M39.397,62.309c-0.249,0-0.481-0.072-0.655-0.21 c-0.221-0.176-0.33-0.439-0.307-0.743c0.012-0.313,0.243-0.731,0.455-1.014c0.21-0.29,0.489-0.598,0.873-0.964l0.472-0.423 c0.184-0.138,0.36-0.262,0.555-0.383c0.636-0.402,1.381-0.797,2.412-1.274c0.149-0.07,0.379-0.058,0.49,0.065 c0.11,0.122,0.181,0.278,0.096,0.42c-0.874,1.465-1.745,2.923-2.948,3.893c-0.002,0.002-0.004,0.004-0.007,0.006 c-0.336,0.258-0.71,0.463-1.025,0.562C39.671,62.287,39.532,62.309,39.397,62.309z M42.494,58.474 c-0.505,0.257-0.926,0.494-1.306,0.734c-0.179,0.11-0.337,0.223-0.487,0.335l-0.422,0.38c-0.348,0.332-0.599,0.607-0.786,0.865 c-0.214,0.284-0.307,0.538-0.31,0.611c-0.006,0.087,0.014,0.103,0.024,0.111c0.06,0.049,0.217,0.067,0.375,0.018 c0.231-0.072,0.526-0.236,0.791-0.439C41.194,60.427,41.868,59.477,42.494,58.474z M40.605,61.384h0.009H40.605z M60.366,56.171 c-0.347,0-0.725-0.033-1.129-0.101c-0.452-0.092-0.78-0.281-1.128-0.482l-0.108-0.062c-0.538-0.334-1.083-0.73-1.726-1.253 c-0.112-0.092-0.162-0.24-0.127-0.381s0.148-0.249,0.29-0.277c0.002-0.001,0.134-0.028,0.136-0.029l0.175-0.032 c0.406-0.076,0.821-0.154,1.188-0.191c0.473-0.044,0.934-0.08,1.389-0.075c0.498,0.008,0.938,0.046,1.343,0.116 c0.514,0.076,0.967,0.304,1.233,0.623c0.248,0.285,0.373,0.586,0.378,0.915c0.006,0.35-0.144,0.799-0.581,1.009 c-0.272,0.132-0.627,0.199-1.149,0.219C60.49,56.17,60.429,56.171,60.366,56.171z M57.394,54.197 c0.352,0.265,0.676,0.488,0.992,0.685l0.099,0.057c0.318,0.185,0.57,0.33,0.889,0.395c0.415,0.068,0.806,0.097,1.15,0.085 c0.402-0.015,0.681-0.062,0.851-0.145c0.156-0.075,0.157-0.296,0.156-0.32c0-0.001,0-0.001,0-0.001 c-0.001-0.101-0.026-0.241-0.199-0.44c-0.148-0.178-0.454-0.32-0.782-0.369c-0.375-0.065-0.777-0.1-1.239-0.106 c-0.415-0.009-0.833,0.029-1.275,0.069C57.827,54.127,57.611,54.159,57.394,54.197z M48.544,54.374 c-0.116,0-0.228-0.054-0.299-0.149c-0.089-0.117-0.101-0.277-0.029-0.406c0.125-0.226,1.083-2.023,1.429-2.891 c0.109-0.264,0.199-0.525,0.289-0.786l0.043-0.127c0.047-0.136,0.168-0.233,0.312-0.25c0.145-0.011,0.284,0.051,0.36,0.174 l0.124,0.197c0.111,0.178,0.222,0.356,0.339,0.531c0.297,0.422,0.547,0.777,0.852,1.156c0.325,0.376,0.65,0.722,0.985,1.048 c0.101,0.098,0.157,0.261,0.116,0.396c-0.041,0.134-0.135,0.251-0.273,0.276c-1.477,0.266-2.81,0.51-4.163,0.821 C48.6,54.371,48.572,54.374,48.544,54.374z M50.427,50.989c-0.028,0.074-0.058,0.147-0.088,0.222 c-0.242,0.604-0.736,1.579-1.083,2.246c0.882-0.188,1.767-0.355,2.7-0.525c-0.193-0.203-0.379-0.409-0.568-0.628 c-0.324-0.402-0.583-0.77-0.848-1.146C50.5,51.099,50.462,51.042,50.427,50.989z M49.448,44.858c-0.147,0-0.283-0.087-0.343-0.224 c-0.314-0.709-0.541-1.297-0.714-1.848c-0.302-0.952-0.401-1.788-0.304-2.556c0.045-0.328,0.148-0.793,0.386-1.164 c0.227-0.372,0.548-0.607,0.855-0.622c0.034,0.002,0.068,0.002,0.1,0.009c0.875,0.198,0.99,1.144,1.045,1.598l0.013,0.149 c0.012,0.136,0.024,0.277,0.023,0.422c-0.004,0.081-0.003,0.14-0.002,0.196c0.001,0.114,0.001,0.228-0.016,0.376 c-0.011,0.316-0.063,0.729-0.161,1.27c-0.141,0.662-0.311,1.352-0.522,2.118c-0.042,0.152-0.176,0.263-0.333,0.274 C49.467,44.858,49.458,44.858,49.448,44.858z M49.339,39.208c-0.044,0.028-0.136,0.103-0.229,0.256 c-0.133,0.207-0.23,0.512-0.278,0.865c-0.083,0.653,0.006,1.384,0.275,2.23l0,0.001c0.075,0.239,0.161,0.486,0.261,0.749 c0.085-0.343,0.161-0.672,0.229-0.99c0.089-0.494,0.137-0.874,0.149-1.184c0.015-0.14,0.014-0.225,0.013-0.31 c0-0.071-0.001-0.144,0.003-0.226c0-0.104-0.011-0.221-0.021-0.333l-0.012-0.145C49.651,39.491,49.525,39.283,49.339,39.208z"/></svg>