<svg xmlns="http://www.w3.org/2000/svg"  viewBox="0 0 100 100" width="50px" height="50px"><path fill="#ee3e54" d="M12.875,27.958c-1.105,0-2,0.895-2,2s0.895,2,2,2s2-0.895,2-2S13.98,27.958,12.875,27.958z"/><path fill="#f1bc19" d="M76.875,12.958c-0.551,0-1,0.449-1,1s0.449,1,1,1s1-0.449,1-1S77.426,12.958,76.875,12.958z"/><path fill="#fce0a2" d="M49.875,13.958c-20.434,0-37,16.566-37,37s16.566,37,37,37s37-16.566,37-37 S70.309,13.958,49.875,13.958z"/><path fill="#f1bc19" d="M82.875,11.958c-2.211,0-4,1.789-4,4s1.789,4,4,4s4-1.789,4-4S85.086,11.958,82.875,11.958z"/><path fill="#ee3e54" d="M86.875,22.958c-1.105,0-2,0.895-2,2s0.895,2,2,2s2-0.895,2-2S87.98,22.958,86.875,22.958z"/><path fill="#fbcd59" d="M80.875,74.958c-1.105,0-2,0.895-2,2s0.895,2,2,2s2-0.895,2-2S81.98,74.958,80.875,74.958z M14.875,59.958c-2.211,0-4,1.789-4,4c0,2.211,1.789,4,4,4s4-1.789,4-4C18.875,61.747,17.086,59.958,14.875,59.958z"/><path fill="#ee3e54" d="M24.875,85.958c-1.105,0-2,0.895-2,2s0.895,2,2,2s2-0.895,2-2S25.98,85.958,24.875,85.958z"/><path fill="#fff" d="M17.375,42.958c-1.379,0-2.5,1.121-2.5,2.5s1.121,2.5,2.5,2.5s2.5-1.121,2.5-2.5 S18.754,42.958,17.375,42.958z"/><path fill="#f1bc19" d="M20.875,65.958c-0.551,0-1,0.449-1,1s0.449,1,1,1s1-0.449,1-1S21.426,65.958,20.875,65.958z"/><path fill="#fff" d="M81.875,37.958c-0.551,0-1,0.449-1,1s0.449,1,1,1s1-0.449,1-1S82.426,37.958,81.875,37.958z"/><path fill="#c5def0" d="M50.375,62.688C41,56.25,42.001,44.869,50,45c6.808,0.112,7.239,7.996,4.228,10.752 c-0.513,0.47-0.376,1.333,0.228,1.679c10.403,5.975,21.589-1.583,19.607-12.65c-0.297-1.496-0.579-2.464-1.065-3.602 c-4.037-9.441-13.717-15.893-24.8-15.116C35.835,26.93,25.826,37.02,25.051,49.388C24.139,63.925,35.659,76,50,76 c8.885,0,16.684-4.637,21.117-11.621c0.387-0.61-0.306-1.349-0.935-0.993C64.353,66.686,55.777,66.397,50.375,62.688z"/><path fill="#8889b9" d="M70.183,63.386c-5.829,3.3-14.406,3.011-19.808-0.698C41,56.25,42.001,44.869,50,45 c0.002,0,0.004,0,0.006,0.001l-0.818-2.251l-18.313,2.875l-4.59,13.286C29.596,68.839,38.959,76,50,76 c8.885,0,16.684-4.637,21.117-11.621C71.505,63.769,70.812,63.03,70.183,63.386z"/><path fill="#78a0cf" d="M25.535,56.15C27.909,67.486,37.959,76,50,76c2.502,0,4.913-0.379,7.192-1.064 C39.12,76.2,35.525,61.549,39.688,52.563c2.348-5.07,7.945-8.719,12.187-7.281c1.936,0.548,3.135,1.872,3.709,3.447 c0.077,0.15,0.156,0.298,0.229,0.458C51.929,32.729,21.744,34.16,25.535,56.15z"/><g><path fill="#c0d078" d="M56.008,51.159c-0.004,1.799-0.649,3.558-1.78,4.593c-0.513,0.47-0.376,1.333,0.228,1.679 c10.403,5.975,21.589-1.583,19.607-12.65c-0.297-1.496-0.579-2.464-1.065-3.602c-4.037-9.441-13.717-15.893-24.8-15.116 c-1.062,0.074-2.098,0.24-3.121,0.447C58.691,33.619,59.537,44.773,56.008,51.159z"/></g><g><path fill="#88ae45" d="M54.299,55.674c-0.025,0.024-0.045,0.054-0.071,0.078c-0.513,0.47-0.376,1.333,0.228,1.679 c10.403,5.975,21.589-1.583,19.607-12.65c-0.297-1.496-0.579-2.464-1.065-3.602c-1.913-4.475-5.105-8.264-9.102-10.944 C69.66,45.042,61.503,54.174,54.299,55.674z"/></g><g><path fill="#472b29" d="M50,27.4L50,27.4c9.466,0,17.988,5.625,21.71,14.33c0.441,1.031,0.697,1.901,0.974,3.298 c0.624,3.487-0.175,6.775-2.252,9.256c-2.047,2.446-5.134,3.849-8.469,3.849c-2.175,0-4.338-0.574-6.434-1.706 c1.829-2.003,2.414-5.456,1.346-8.274c-1.077-2.84-3.574-4.499-6.852-4.553l-0.159-0.001c-3.494,0-6.18,1.931-7.183,5.166 c-1.274,4.104,0.343,10.573,6.902,15.077c3.039,2.087,7.047,3.236,11.285,3.236c2.647,0,5.252-0.467,7.562-1.337 C63.969,71.331,57.252,74.6,50,74.6c-6.585,0-12.695-2.645-17.205-7.447c-4.507-4.798-6.761-11.076-6.347-17.678 c0.736-11.73,10.128-21.194,21.847-22.016C48.862,27.42,49.436,27.4,50,27.4 M50,26c-0.596,0-1.197,0.021-1.803,0.063 C35.835,26.93,25.826,37.02,25.051,49.388C24.139,63.925,35.659,76,50,76c8.885,0,16.684-4.637,21.117-11.621 c0.317-0.5-0.091-1.086-0.594-1.086c-0.111,0-0.227,0.029-0.341,0.093c-2.709,1.534-6.013,2.292-9.315,2.292 c-3.802,0-7.602-1.005-10.493-2.991c-9.321-6.401-8.385-17.689-0.512-17.689c0.045,0,0.091,0,0.137,0.001 c6.808,0.112,7.239,7.996,4.228,10.752c-0.513,0.47-0.376,1.333,0.228,1.679c2.523,1.449,5.093,2.102,7.508,2.102 c7.546,0,13.6-6.369,12.099-14.752c-0.297-1.496-0.579-2.464-1.065-3.602C69.181,32.254,60.321,26,50,26L50,26z"/></g><g><path fill="#472b29" d="M52.5,74.917c-0.015,0-0.03-0.001-0.044-0.004c-6.659-1.193-11.211-4.367-13.166-9.178 c-0.052-0.128,0.009-0.273,0.137-0.325c0.127-0.055,0.273,0.009,0.326,0.138c1.886,4.643,6.309,7.711,12.791,8.873 c0.136,0.024,0.227,0.154,0.202,0.29C52.725,74.832,52.619,74.917,52.5,74.917z"/></g><g><path fill="#472b29" d="M38.783,63.431c-0.116,0-0.22-0.082-0.245-0.2c-0.416-2.04-0.426-4.218-0.03-6.472 c0.023-0.137,0.16-0.233,0.289-0.203c0.136,0.023,0.227,0.153,0.203,0.289c-0.384,2.192-0.375,4.308,0.028,6.286 c0.027,0.135-0.06,0.268-0.195,0.295C38.816,63.429,38.799,63.431,38.783,63.431z"/></g><g><path fill="#472b29" d="M39.308,54.729c-0.024,0-0.048-0.004-0.073-0.011c-0.132-0.04-0.207-0.18-0.167-0.312 c0.958-3.159,2.634-5.854,4.375-7.031c0.114-0.077,0.27-0.048,0.347,0.067c0.078,0.114,0.047,0.27-0.067,0.347 c-1.65,1.116-3.25,3.708-4.176,6.762C39.515,54.66,39.416,54.729,39.308,54.729z"/></g><g><path fill="#472b29" d="M53.583,45.25c-0.082,0-0.161-0.04-0.209-0.113c-2.607-3.985-6.696-6.354-11.514-6.671 c-0.138-0.009-0.242-0.128-0.233-0.266s0.128-0.256,0.266-0.232c4.978,0.326,9.204,2.774,11.899,6.896 c0.076,0.115,0.043,0.271-0.072,0.346C53.678,45.237,53.631,45.25,53.583,45.25z"/></g><g><path fill="#472b29" d="M33.021,40.161c-0.094,0-0.184-0.054-0.227-0.145c-0.059-0.125-0.004-0.273,0.121-0.332 c1.926-0.9,4.065-1.48,6.188-1.677c0.136-0.018,0.259,0.089,0.272,0.226c0.013,0.138-0.088,0.26-0.226,0.272 c-2.065,0.19-4.147,0.755-6.021,1.632C33.093,40.153,33.057,40.161,33.021,40.161z"/></g><g><path fill="#472b29" d="M26,46.75c-0.036,0-0.071-0.008-0.106-0.023c-0.125-0.059-0.179-0.207-0.121-0.332 c0.98-2.101,2.678-3.989,4.911-5.464c0.114-0.075,0.27-0.046,0.346,0.071c0.076,0.115,0.044,0.271-0.071,0.347 c-2.156,1.423-3.792,3.241-4.733,5.257C26.184,46.696,26.094,46.75,26,46.75z"/></g></svg>